<?xml version="1.0" encoding="iso-8859-1"?>
<!-- Generator: Adobe Illustrator 19.0.0, SVG Export Plug-In . SVG Version: 6.00 Build 0)  -->
<svg version="1.1" id="Capa_1" xmlns="http://www.w3.org/2000/svg" xmlns:xlink="http://www.w3.org/1999/xlink" x="0px" y="0px"
	 viewBox="0 0 512.001 512.001" style="enable-background:new 0 0 512.001 512.001;" xml:space="preserve">
<path style="fill:#FF9A00;" d="M231.433,167.056H201.43V96.323c0-28.765-23.402-52.167-52.167-52.167V14.153
	c45.31,0,82.17,36.862,82.17,82.17V167.056z"/>
<circle style="fill:#AE4B00;" cx="149.259" cy="29.084" r="29.084"/>
<path style="fill:#D86100;" d="M310.564,167.056h-30.004V96.323c0-45.31,36.862-82.17,82.17-82.17v30.004
	c-28.765,0-52.167,23.402-52.167,52.167V167.056z"/>
<circle style="fill:#803400;" cx="362.736" cy="29.084" r="29.084"/>
<path style="fill:#FFB74D;" d="M263.496,115.758h-14.998c-25.953,0-47.069,21.115-47.069,47.069V412.62
	c0,25.954,21.115,47.07,47.069,47.07h14.998c25.953,0,47.069-21.115,47.069-47.07V162.826
	C310.564,136.872,289.45,115.758,263.496,115.758z"/>
<path style="fill:#FF9A00;" d="M263.496,115.758h-7.496v343.932h7.496c25.953,0,47.069-21.115,47.069-47.07V162.826
	C310.564,136.872,289.45,115.758,263.496,115.758z"/>
<path style="fill:#C81C00;" d="M376.195,158.936c-52.73,0-95.628,42.899-95.628,95.628v103.333h-0.006v96.733
	c0,31.634,25.735,57.369,57.369,57.369h96.733v-96.733c0-10.283-2.733-19.936-7.491-28.291c46.472-6.48,82.36-46.476,82.36-94.703
	V158.936L376.195,158.936L376.195,158.936z"/>
<path style="fill:#FF3100;" d="M135.805,158.936H2.468v133.337c0,48.225,35.886,88.221,82.354,94.703
	c-4.758,8.356-7.492,18.007-7.492,28.292v96.733h96.733c31.634,0,57.369-25.735,57.369-57.369v-66.729v-30.004V254.565
	C231.433,201.835,188.535,158.936,135.805,158.936z"/>
<path style="fill:#FF9A00;" d="M442.509,350.706c-36.227,0-65.698-29.473-65.698-65.698c0-36.228,29.473-65.699,65.698-65.699
	c36.227,0,65.698,29.473,65.698,65.699C508.208,321.233,478.736,350.706,442.509,350.706z M442.509,249.311
	c-19.682,0-35.695,16.013-35.695,35.696c0,19.682,16.013,35.695,35.695,35.695c19.682,0,35.695-16.013,35.695-35.695
	C478.204,265.324,462.192,249.311,442.509,249.311z"/>
<path style="fill:#FFB74D;" d="M68.167,350.706c-36.227,0-65.698-29.473-65.698-65.698c0-36.228,29.473-65.699,65.698-65.699
	c36.228,0,65.699,29.473,65.699,65.699C133.867,321.233,104.394,350.706,68.167,350.706z M68.167,249.311
	c-19.683,0-35.695,16.013-35.695,35.696c0,19.682,16.013,35.695,35.695,35.695c19.683,0,35.696-16.013,35.696-35.695
	C103.863,265.324,87.85,249.311,68.167,249.311z"/>
<g>
</g>
<g>
</g>
<g>
</g>
<g>
</g>
<g>
</g>
<g>
</g>
<g>
</g>
<g>
</g>
<g>
</g>
<g>
</g>
<g>
</g>
<g>
</g>
<g>
</g>
<g>
</g>
<g>
</g>
</svg>
