<?xml version="1.0" encoding="iso-8859-1"?>
<!-- Generator: Adobe Illustrator 19.0.0, SVG Export Plug-In . SVG Version: 6.00 Build 0)  -->
<svg version="1.1" id="Capa_1" xmlns="http://www.w3.org/2000/svg" xmlns:xlink="http://www.w3.org/1999/xlink" x="0px" y="0px"
	 viewBox="0 0 512 512" style="enable-background:new 0 0 512 512;" xml:space="preserve">
<path style="fill:#58B09B;" d="M291.67,189.597c60.989-85.871,152.173-106.356,201.352-39.151
	c42.025,57.429,11.443,135.285-64.031,186.654c25.73,23.067,42.328,102.008-27.156,118.848
	c-44.894,10.88-101.684-49.467-110.165-82.058V189.597z"/>
<circle style="fill:#2CA7C1;" cx="416.38" cy="209.58" r="44.758"/>
<ellipse transform="matrix(-0.7973 0.6036 -0.6036 -0.7973 902.0812 451.5546)" style="fill:#9CDEB3;" cx="375.217" cy="377.253" rx="30.04" ry="40.05"/>
<path style="fill:#CDEDFF;" d="M386.66,305.002c-2.472,0-5.066-0.098-7.746-0.328c-13.733-1.181-25.281-5.403-34.32-12.549
	c-13.931-11.012-20.994-28.166-20.994-50.986c0-4.143,3.357-7.5,7.5-7.5s7.5,3.357,7.5,7.5c0,18.001,5.146,31.196,15.296,39.219
	c18.605,14.706,47.418,8.42,50.643,7.656c4.037-0.96,8.073,1.536,9.028,5.565c0.957,4.03-1.535,8.072-5.565,9.028
	C404.597,303.416,396.637,305.002,386.66,305.002z"/>
<path style="fill:#58B09B;" d="M220.33,189.597C159.341,103.726,68.157,83.241,18.978,150.446
	C-23.048,207.875,7.535,285.73,83.009,337.1c-25.73,23.067-42.328,102.008,27.156,118.848
	c44.894,10.88,101.683-49.467,110.165-82.058V189.597z"/>
<path style="fill:#E9CA59;" d="M256,129.55L256,129.55c-19.7,0-35.67,15.97-35.67,35.67v247.091c0,19.7,15.97,35.67,35.67,35.67l0,0
	c19.7,0,35.67-15.97,35.67-35.67V165.22C291.67,145.52,275.7,129.55,256,129.55z"/>
<circle style="fill:#2CA7C1;" cx="95.62" cy="209.58" r="44.758"/>
<ellipse transform="matrix(0.7973 0.6036 -0.6036 0.7973 255.4071 -6.0844)" style="fill:#9CDEB3;" cx="136.762" cy="377.214" rx="30.04" ry="40.05"/>
<path style="fill:#CDEDFF;" d="M125.34,305.002c-9.978,0-17.936-1.586-21.341-2.395c-4.03-0.956-6.522-4.998-5.565-9.028
	s4.997-6.523,9.029-5.565c3.225,0.765,32.039,7.05,50.642-7.656c10.15-8.022,15.296-21.218,15.296-39.219c0-4.143,3.358-7.5,7.5-7.5
	s7.5,3.357,7.5,7.5c0,22.82-7.063,39.975-20.994,50.986c-9.04,7.146-20.587,11.368-34.32,12.549
	C130.406,304.905,127.81,305.002,125.34,305.002z"/>
<g>
	<path style="fill:#4A4D58;" d="M243.922,123.534c-4.142,0-7.5-3.357-7.5-7.5c0-10.865-11.854-33.191-25.885-48.753
		c-2.773-3.076-2.528-7.818,0.548-10.593c3.076-2.774,7.819-2.529,10.593,0.548c14.42,15.992,29.745,42.034,29.745,58.798
		C251.422,120.177,248.064,123.534,243.922,123.534z"/>
	<path style="fill:#4A4D58;" d="M268.078,123.534c-4.143,0-7.5-3.357-7.5-7.5c0-16.764,15.325-42.806,29.744-58.798
		c2.773-3.075,7.517-3.321,10.593-0.548c3.076,2.774,3.321,7.517,0.548,10.593c-14.031,15.561-25.885,37.887-25.885,48.753
		C275.578,120.177,272.221,123.534,268.078,123.534z"/>
</g>
<path style="opacity:0.1;enable-background:new    ;" d="M256,129.55L256,129.55c-19.7,0-35.67,15.97-35.67,35.67v78.979
	c10.865,5.01,22.942,7.826,35.67,7.826c12.728,0,24.805-2.816,35.67-7.826V165.22C291.67,145.52,275.7,129.55,256,129.55z"/>
<path style="opacity:0.1;enable-background:new    ;" d="M337.625,141.038c-16.328,12.557-31.939,28.826-45.955,48.559v184.292
	c2.627,10.095,9.892,22.853,20,35.332V231.338c18.246-15.693,29.834-38.92,29.834-64.817
	C341.504,157.649,340.144,149.09,337.625,141.038z"/>
<path style="opacity:0.1;enable-background:new    ;" d="M174.376,141.038c-2.519,8.052-3.879,16.611-3.879,25.482
	c0,25.897,11.588,49.124,29.833,64.817V409.22c10.108-12.479,17.373-25.237,20-35.332V189.597
	C206.315,169.864,190.703,153.595,174.376,141.038z"/>
<circle style="fill:#E9CA59;" cx="256" cy="166.52" r="65.5"/>
<path style="opacity:0.1;enable-background:new    ;" d="M95.194,110.468c-29.126-0.244-56.163,12.575-76.216,39.978
	C-23.048,207.875,7.535,285.73,83.009,337.1c-25.73,23.066-42.328,102.008,27.156,118.848c23.901,5.792,51.174-8.605,72.733-28.253
	C126.303,361.893,76.69,204.082,95.194,110.468z"/>
<g>
	<path style="fill:#4A4D58;" d="M242.746,170.749c-4.142,0-7.5-3.357-7.5-7.5c0-3.491-2.84-6.331-6.331-6.331
		s-6.331,2.84-6.331,6.331c0,4.143-3.358,7.5-7.5,7.5s-7.5-3.357-7.5-7.5c0-11.762,9.569-21.331,21.331-21.331
		s21.331,9.569,21.331,21.331C250.246,167.392,246.888,170.749,242.746,170.749z"/>
	<path style="fill:#4A4D58;" d="M296.916,170.749c-4.143,0-7.5-3.357-7.5-7.5c0-3.491-2.84-6.331-6.331-6.331
		s-6.331,2.84-6.331,6.331c0,4.143-3.357,7.5-7.5,7.5s-7.5-3.357-7.5-7.5c0-11.762,9.569-21.331,21.331-21.331
		s21.331,9.569,21.331,21.331C304.416,167.392,301.059,170.749,296.916,170.749z"/>
</g>
<g style="opacity:0.1;">
	<rect x="220.33" y="287.61" width="71.34" height="15"/>
	<rect x="220.33" y="351.92" width="71.34" height="15"/>
</g>
<g>
</g>
<g>
</g>
<g>
</g>
<g>
</g>
<g>
</g>
<g>
</g>
<g>
</g>
<g>
</g>
<g>
</g>
<g>
</g>
<g>
</g>
<g>
</g>
<g>
</g>
<g>
</g>
<g>
</g>
</svg>
