<?xml version="1.0" encoding="iso-8859-1"?>
<!-- Generator: Adobe Illustrator 19.0.0, SVG Export Plug-In . SVG Version: 6.00 Build 0)  -->
<svg version="1.1" id="Capa_1" xmlns="http://www.w3.org/2000/svg" xmlns:xlink="http://www.w3.org/1999/xlink" x="0px" y="0px"
	 viewBox="0 0 512 512" style="enable-background:new 0 0 512 512;" xml:space="preserve">
<path style="fill:#0F9EFF;" d="M218.434,259.258C210.15,157.159,124.676,76.882,20.443,76.882H0v60.833
	c0,0,30.583,26.986,40.537,94.068c3.732,25.148,25.352,43.758,50.775,43.758h36.899l-21.262,21.763
	c-35.679,36.52-45.658,91.022-25.234,137.814l0,0h45.396c50.806,0,91.992-41.186,91.992-91.992L218.434,259.258z"/>
<polygon style="fill:#BDC4CB;" points="312.651,91.931 284.396,81.849 256,161.432 256,161.431 245.992,211.109 270.128,211.109 "/>
<polygon style="fill:#DCE4EC;" points="227.604,81.849 199.349,91.931 241.873,211.109 256,211.109 256,161.431 "/>
<path style="fill:#0074DE;" d="M491.557,76.882c-104.233,0-189.707,80.277-197.991,182.376l-0.668,83.868
	c0,50.806,41.186,91.992,91.992,91.992h45.396l0,0c20.424-46.792,10.445-101.295-25.234-137.814l-21.262-21.763h36.899
	c25.423,0,47.043-18.61,50.775-43.758C481.417,164.701,512,137.715,512,137.715V76.882H491.557z"/>
<path style="fill:#0058A8;" d="M256,188.56L256,188.56l-20.016,86.981L256,362.522l0,0c24.48,0,44.397-19.917,44.397-44.398v-85.167
	C300.397,208.477,280.48,188.56,256,188.56z"/>
<path style="fill:#0074DE;" d="M211.602,232.958v85.167c0,24.481,19.917,44.398,44.398,44.398V188.56
	C231.519,188.56,211.602,208.477,211.602,232.958z"/>
<g>
</g>
<g>
</g>
<g>
</g>
<g>
</g>
<g>
</g>
<g>
</g>
<g>
</g>
<g>
</g>
<g>
</g>
<g>
</g>
<g>
</g>
<g>
</g>
<g>
</g>
<g>
</g>
<g>
</g>
</svg>
