<?xml version="1.0" encoding="iso-8859-1"?>
<!-- Generator: Adobe Illustrator 19.0.0, SVG Export Plug-In . SVG Version: 6.00 Build 0)  -->
<svg version="1.1" id="Layer_1" xmlns="http://www.w3.org/2000/svg" xmlns:xlink="http://www.w3.org/1999/xlink" x="0px" y="0px"
	 viewBox="0 0 511.998 511.998" style="enable-background:new 0 0 511.998 511.998;" xml:space="preserve">
<path style="fill:#FF5E8A;" d="M256,385.81L256,385.81c-27.764,0-50.27-22.508-50.27-50.27v-61.002
	c0-27.764,22.508-50.27,50.27-50.27l0,0c27.764,0,50.27,22.508,50.27,50.27v61.002C306.271,363.304,283.765,385.81,256,385.81z"/>
<g>
	<path style="fill:#FECC85;" d="M205.73,335.54v-61.002c0-27.631,22.295-50.049,49.878-50.262
		c1.329-10.903,1.455-22.164,0.211-33.592C247.88,117.73,187.675,65.67,121.35,74.403S7.694,149.357,15.634,222.309
		c4.905,45.073,29.764,82.161,63.687,101.875c-12.835,20.375-19.226,45.783-16.337,72.332
		c6.274,57.655,53.854,98.799,106.271,91.896c48.064-6.329,83.479-50.863,84.197-102.665
		C226.873,384.419,205.73,362.449,205.73,335.54z"/>
	<path style="fill:#FECC85;" d="M390.651,74.403c-66.325-8.733-126.528,43.327-134.468,116.281
		c-1.244,11.429-1.118,22.689,0.211,33.592c27.583,0.213,49.878,22.629,49.878,50.262v61.002c0,26.909-21.143,48.879-47.724,50.207
		c0.718,51.802,36.133,96.336,84.197,102.665c52.416,6.902,99.997-34.241,106.271-91.896c2.889-26.549-3.5-51.957-16.337-72.332
		c33.923-19.713,58.782-56.802,63.687-101.875C504.307,149.355,456.976,83.136,390.651,74.403z"/>
</g>
<g>
	<path style="fill:#FF5E8A;" d="M414.716,157.832c-14.863,0-26.525,16.573-26.525,16.573s-11.001-16.573-26.531-16.573
		c-15.107,0-27.444,12.46-28.25,27.546c-0.455,8.522,2.292,15.009,6.163,20.883c7.735,11.736,41.553,39.992,48.668,39.992
		c7.261,0,40.778-28.153,48.565-39.992c3.879-5.902,6.618-12.361,6.162-20.883C442.162,170.291,429.824,157.832,414.716,157.832"/>
	<path style="fill:#FF5E8A;" d="M150.337,157.832c-14.863,0-26.525,16.573-26.525,16.573s-11.001-16.573-26.531-16.573
		c-15.107,0-27.444,12.46-28.25,27.546c-0.455,8.522,2.292,15.009,6.163,20.883c7.735,11.736,41.553,39.992,48.668,39.992
		c7.261,0,40.778-28.153,48.564-39.992c3.879-5.902,6.618-12.361,6.162-20.883C177.783,170.291,165.445,157.832,150.337,157.832"/>
</g>
<path d="M392.579,59.759c-28.123-3.707-56.242,2.214-80.825,16.706l16.148-49.008c2.552-7.747-1.659-16.096-9.407-18.65
	c-7.739-2.549-16.095,1.659-18.65,9.407L266.36,119.847c-3.85,5.8-7.317,11.89-10.359,18.229c-3.043-6.339-6.509-12.43-10.36-18.229
	L212.155,18.214c-2.554-7.748-10.907-11.958-18.65-9.407c-7.748,2.554-11.959,10.903-9.407,18.65l16.146,49.008
	c-24.58-14.492-52.697-20.412-80.823-16.706C45.31,69.519-7.836,143.153,0.95,223.906c4.669,42.899,26.345,81.207,58.878,105.13
	c-10.054,21.159-14.126,45.201-11.529,69.078c3.616,33.222,20,63.513,44.952,83.108c18.925,14.863,41.44,22.714,64.538,22.714
	c4.449,0,8.922-0.291,13.393-0.882c37.226-4.901,68.477-29.953,84.817-64.327c16.34,34.374,47.591,59.426,84.817,64.327
	c4.472,0.589,8.945,0.882,13.393,0.882c23.098,0,45.615-7.852,64.538-22.714c24.952-19.595,41.335-49.885,44.952-83.108
	c2.598-23.875-1.475-47.918-11.529-69.078c32.533-23.921,54.21-62.231,58.878-105.13C519.837,143.153,466.691,69.519,392.579,59.759
	z M256.278,239.046c18.814,0.145,34.23,15.09,35.176,33.68c0.031,0.601,0.046,1.204,0.046,1.812v61.002
	c0,0.604-0.016,1.205-0.046,1.802c-0.006,0.129-0.021,0.254-0.028,0.381c-0.03,0.473-0.061,0.944-0.108,1.412
	c-0.01,0.103-0.027,0.207-0.038,0.31c-0.055,0.493-0.114,0.985-0.188,1.473c-0.009,0.055-0.021,0.109-0.03,0.165
	c-2.478,15.743-15.338,28.08-31.328,29.761c-0.04,0.004-0.08,0.01-0.121,0.015c-0.421,0.043-0.846,0.069-1.272,0.097
	c-0.179,0.012-0.354,0.031-0.533,0.04c-0.001,0-0.001,0-0.003,0c-0.598,0.031-1.201,0.046-1.806,0.046s-1.208-0.016-1.806-0.046
	c-0.001,0-0.003,0-0.003,0c-0.179-0.009-0.356-0.028-0.533-0.04c-0.425-0.028-0.851-0.055-1.272-0.097
	c-0.04-0.003-0.08-0.01-0.121-0.015c-15.991-1.681-28.85-14.018-31.328-29.761c-0.009-0.056-0.021-0.111-0.03-0.165
	c-0.074-0.487-0.133-0.979-0.188-1.473c-0.012-0.103-0.028-0.207-0.038-0.31c-0.047-0.467-0.078-0.939-0.108-1.412
	c-0.007-0.127-0.022-0.253-0.028-0.381c-0.03-0.597-0.046-1.198-0.046-1.802v-61.002c0-0.609,0.016-1.211,0.046-1.812
	c0.945-18.589,16.362-33.536,35.176-33.68c0.035,0,0.071-0.004,0.106-0.006c0.058,0,0.115-0.004,0.173-0.004
	c0.058,0,0.115,0.004,0.173,0.004C256.209,239.042,256.243,239.046,256.278,239.046z M167.327,473.767
	c-19.744,2.597-39.565-3.006-55.833-15.78c-18.737-14.715-31.067-37.703-33.827-63.071c-2.418-22.214,2.608-44.538,14.151-62.863
	c2.137-3.393,2.802-7.506,1.846-11.399c-0.957-3.893-3.456-7.23-6.923-9.244c-31.118-18.083-52.213-51.99-56.425-90.701
	C23.252,155.79,64.953,96.726,123.279,89.046c4.17-0.548,8.34-0.821,12.497-0.821c21.782,0,43.095,7.468,61.083,21.595
	c24.531,19.266,40.67,49.324,44.277,82.461c0.012,0.112,0.019,0.224,0.031,0.337c-0.539,6.231-0.719,12.489-0.535,18.73
	c-23.77,5.784-42.459,24.655-47.984,48.525c-0.066,0.285-0.136,0.57-0.198,0.857c-0.128,0.595-0.247,1.193-0.359,1.793
	c-0.08,0.425-0.157,0.851-0.229,1.278c-0.087,0.526-0.17,1.055-0.245,1.585c-0.075,0.523-0.139,1.05-0.201,1.577
	c-0.055,0.467-0.111,0.932-0.155,1.4c-0.062,0.644-0.106,1.292-0.148,1.941c-0.024,0.371-0.056,0.74-0.074,1.112
	c-0.05,1.035-0.08,2.074-0.08,3.121v0.001v61.002c0,1.04,0.031,2.071,0.078,3.099c0.015,0.298,0.037,0.594,0.056,0.891
	c0.046,0.747,0.1,1.492,0.17,2.233c0.03,0.307,0.062,0.613,0.096,0.92c0.084,0.777,0.183,1.549,0.295,2.317
	c0.033,0.226,0.064,0.453,0.099,0.678c3.904,24.98,21.994,45.333,45.98,52.312C232.23,437.385,203.631,468.988,167.327,473.767z
	 M481.684,220.709c-4.214,38.712-25.307,72.619-56.425,90.701c-3.466,2.015-5.964,5.351-6.923,9.244
	c-0.956,3.893-0.291,8.007,1.846,11.399c11.543,18.323,16.569,40.648,14.151,62.863c-2.76,25.369-15.092,48.356-33.827,63.071
	c-16.269,12.774-36.102,18.381-55.833,15.78c-36.304-4.779-64.903-36.382-70.408-75.779c23.986-6.979,42.076-27.331,45.98-52.312
	c0.035-0.226,0.066-0.452,0.099-0.678c0.112-0.768,0.211-1.54,0.295-2.317c0.034-0.307,0.066-0.613,0.096-0.92
	c0.069-0.74,0.126-1.486,0.17-2.233c0.018-0.297,0.041-0.592,0.056-0.891c0.049-1.027,0.078-2.059,0.078-3.099v-61.002v-0.001
	c0-1.046-0.03-2.085-0.08-3.121c-0.018-0.372-0.05-0.741-0.074-1.112c-0.043-0.648-0.087-1.297-0.148-1.941
	c-0.044-0.468-0.1-0.933-0.155-1.4c-0.062-0.527-0.126-1.053-0.201-1.577c-0.075-0.53-0.158-1.058-0.245-1.585
	c-0.072-0.427-0.149-0.854-0.229-1.278c-0.112-0.6-0.23-1.199-0.359-1.793c-0.062-0.287-0.131-0.57-0.198-0.857
	c-5.524-23.869-24.214-42.742-47.984-48.525c0.185-6.242,0.004-12.498-0.535-18.73c0.012-0.112,0.018-0.223,0.031-0.335
	c3.605-33.14,19.744-63.197,44.277-82.463c21.422-16.823,47.553-24.194,73.58-20.774C447.047,96.726,488.748,155.79,481.684,220.709
	z"/>
<path d="M414.716,143.062c-10.67,0-19.716,4.868-26.376,10.129c-6.611-5.282-15.672-10.129-26.679-10.129
	c-22.864,0-41.753,18.241-42.998,41.53c-0.743,13.91,4.54,23.666,8.58,29.797c6.604,10.018,22.706,23.697,27.484,27.651
	c22.945,18.985,29.822,18.985,33.516,18.985c3.732,0,10.679,0,33.52-18.963c4.743-3.938,20.734-17.57,27.385-27.686
	c4.035-6.137,9.314-15.901,8.571-29.786C456.471,161.301,437.581,143.062,414.716,143.062z M424.464,198.146
	c-5.138,7.815-26.617,26.221-36.199,32.158c-9.658-5.982-31.242-24.407-36.359-32.17c-2.921-4.431-3.97-7.787-3.749-11.966
	c0.4-7.481,6.457-13.568,13.503-13.568c5.582,0,12.034,6.778,14.228,9.971c2.697,4.065,7.202,6.57,12.079,6.636
	c0.069,0,0.137,0.001,0.205,0.001c4.8,0,9.281-2.303,12.049-6.236c2.614-3.617,9.549-10.373,14.495-10.373
	c7.047,0,13.104,6.085,13.505,13.566C428.443,190.338,427.39,193.695,424.464,198.146z"/>
<path d="M193.338,184.588c-1.247-23.287-20.136-41.527-43.001-41.527c-10.67,0-19.716,4.868-26.376,10.129
	c-6.611-5.282-15.672-10.129-26.679-10.129c-22.864,0-41.753,18.241-42.998,41.53c-0.743,13.91,4.54,23.666,8.58,29.797
	c6.604,10.018,22.706,23.697,27.484,27.651c22.945,18.985,29.822,18.985,33.516,18.985c3.732,0,10.679,0,33.52-18.963
	c4.743-3.938,20.734-17.57,27.385-27.686C188.804,208.238,194.081,198.473,193.338,184.588z M160.086,198.146
	c-5.138,7.815-26.617,26.221-36.199,32.158c-9.658-5.982-31.242-24.407-36.359-32.17c-2.921-4.431-3.97-7.787-3.749-11.966
	c0.4-7.481,6.457-13.568,13.503-13.568c5.581,0,12.034,6.778,14.228,9.971c2.697,4.065,7.202,6.57,12.079,6.636
	c0.069,0,0.137,0.001,0.205,0.001c4.8,0,9.281-2.303,12.049-6.236c2.614-3.617,9.549-10.373,14.495-10.373
	c7.047,0,13.104,6.085,13.505,13.566C164.064,190.338,163.011,193.695,160.086,198.146z"/>
<path d="M394.019,353.976c-7.899,2.04-12.647,10.095-10.609,17.994c1.447,5.605,1.857,11.445,1.213,17.353
	c-2.038,18.719-14.647,33.383-28.711,33.383c-0.923,0-1.868-0.064-2.809-0.186c-8.066-1.063-15.505,4.626-16.57,12.715
	c-1.065,8.088,4.629,15.505,12.715,16.57c2.214,0.292,4.458,0.44,6.669,0.44c29.401,0,54.368-25.677,58.073-59.726
	c1.029-9.466,0.363-18.864-1.978-27.933C409.972,356.686,401.918,351.942,394.019,353.976z"/>
<path d="M158.898,422.518c-0.942,0.123-1.886,0.186-2.814,0.186c-14.061,0-26.67-14.663-28.708-33.381
	c-0.644-5.909-0.235-11.749,1.213-17.354c2.04-7.899-2.71-15.954-10.609-17.994c-7.893-2.031-15.954,2.713-17.994,10.609
	c-2.341,9.069-3.007,18.467-1.978,27.934c3.707,34.049,28.673,59.726,58.078,59.726c2.207,0,4.45-0.148,6.664-0.44
	c8.088-1.065,13.78-8.482,12.715-16.57C174.4,427.145,166.99,421.45,158.898,422.518z"/>
<g>
</g>
<g>
</g>
<g>
</g>
<g>
</g>
<g>
</g>
<g>
</g>
<g>
</g>
<g>
</g>
<g>
</g>
<g>
</g>
<g>
</g>
<g>
</g>
<g>
</g>
<g>
</g>
<g>
</g>
</svg>
