<?xml version="1.0" encoding="iso-8859-1"?>
<!-- Generator: Adobe Illustrator 19.0.0, SVG Export Plug-In . SVG Version: 6.00 Build 0)  -->
<svg version="1.1" id="Capa_1" xmlns="http://www.w3.org/2000/svg" xmlns:xlink="http://www.w3.org/1999/xlink" x="0px" y="0px"
	 viewBox="0 0 512 512" style="enable-background:new 0 0 512 512;" xml:space="preserve">
<path style="fill:#58B09B;" d="M290.625,187.921c59.203-83.356,147.717-103.242,195.456-38.005
	c40.795,55.748,11.108,131.323-62.156,181.188c24.976,22.391,41.089,99.022-26.361,115.368
	c-43.58,10.561-98.706-48.019-106.939-79.655L290.625,187.921L290.625,187.921z"/>
<circle style="fill:#2CA7C1;" cx="411.686" cy="207.323" r="43.451"/>
<ellipse transform="matrix(-0.6036 -0.7973 0.7973 -0.6036 301.038 889.8449)" style="fill:#9CDEB3;" cx="371.73" cy="370.086" rx="38.875" ry="29.161"/>
<path style="fill:#CDEDFF;" d="M382.834,300.168c-2.404,0-4.93-0.095-7.538-0.319c-13.375-1.15-24.623-5.265-33.434-12.229
	c-13.577-10.732-20.462-27.442-20.462-49.666c0-4.143,3.357-7.5,7.5-7.5s7.5,3.357,7.5,7.5c0,17.403,4.968,30.154,14.764,37.899
	c17.979,14.213,45.855,8.132,48.974,7.391c4.037-0.954,8.073,1.537,9.029,5.566c0.956,4.03-1.536,8.072-5.566,9.029
	C400.287,298.625,392.542,300.168,382.834,300.168z"/>
<path style="fill:#58B09B;" d="M221.374,187.921C162.17,104.565,73.657,84.681,25.918,149.918
	c-40.795,55.748-11.108,131.323,62.156,181.188c-24.976,22.391-41.089,99.022,26.361,115.368
	c43.58,10.561,98.706-48.019,106.939-79.655V187.921z"/>
<path style="fill:#E9CA59;" d="M256,129.633L256,129.633c-19.123,0-34.626,15.502-34.626,34.626v239.856
	c0,19.123,15.502,34.626,34.626,34.626l0,0c19.123,0,34.626-15.502,34.626-34.626V164.259
	C290.625,145.136,275.123,129.633,256,129.633z"/>
<circle style="fill:#2CA7C1;" cx="100.322" cy="207.323" r="43.451"/>
<ellipse transform="matrix(-0.6036 0.7973 -0.7973 -0.6036 519.9335 481.5886)" style="fill:#9CDEB3;" cx="140.246" cy="370.047" rx="38.875" ry="29.161"/>
<path style="fill:#CDEDFF;" d="M129.165,300.168c-9.709,0-17.453-1.543-20.766-2.329c-4.03-0.957-6.522-4.999-5.566-9.029
	c0.957-4.03,4.999-6.521,9.029-5.566c3.12,0.741,30.994,6.822,48.973-7.391c9.797-7.744,14.764-20.494,14.764-37.899
	c0-4.143,3.358-7.5,7.5-7.5c4.142,0,7.5,3.357,7.5,7.5c0,22.223-6.884,38.934-20.462,49.666
	c-8.81,6.964-20.058,11.078-33.434,12.229C134.096,300.073,131.57,300.168,129.165,300.168z"/>
<path style="opacity:0.1;enable-background:new    ;" d="M256,129.633L256,129.633c-19.123,0-34.626,15.502-34.626,34.626v76.666
	c10.547,4.863,22.27,7.596,34.626,7.596c12.356,0,24.078-2.734,34.626-7.596v-76.666C290.625,145.136,275.123,129.633,256,129.633z"
	/>
<path style="opacity:0.1;enable-background:new    ;" d="M335.234,140.785c-15.85,12.189-31.004,27.981-44.609,47.137v178.896
	c2.55,9.799,9.602,22.183,19.414,34.298V228.441C327.751,213.208,339,190.66,339,165.522
	C339,156.91,337.679,148.601,335.234,140.785z"/>
<path style="opacity:0.1;enable-background:new    ;" d="M176.766,140.786c-2.445,7.816-3.766,16.124-3.766,24.736
	c0,25.139,11.249,47.686,28.96,62.919v172.675c9.811-12.114,16.864-24.498,19.414-34.298V187.921
	C207.769,168.767,192.615,152.974,176.766,140.786z"/>
<circle style="fill:#E9CA59;" cx="256.004" cy="165.522" r="63.581"/>
<path style="opacity:0.1;enable-background:new    ;" d="M99.903,111.11c-28.273-0.237-54.519,12.206-73.984,38.807
	C-14.876,205.665,14.81,281.24,88.074,331.105c-24.976,22.391-41.089,99.022,26.361,115.368
	c23.201,5.623,49.675-8.353,70.603-27.426C130.1,355.173,81.94,201.983,99.903,111.11z"/>
<g style="opacity:0.1;">
	<rect x="221.373" y="282.844" width="69.251" height="15"/>
	<rect x="221.373" y="345.265" width="69.251" height="15"/>
</g>
<path d="M462.629,207.32c0-28.092-22.854-50.947-50.948-50.947c-28.092,0-50.947,22.854-50.947,50.947s22.855,50.947,50.947,50.947
	C439.774,258.267,462.629,235.412,462.629,207.32z M411.68,243.267c-19.821,0-35.947-16.125-35.947-35.947
	s16.125-35.947,35.947-35.947s35.948,16.125,35.948,35.947S431.503,243.267,411.68,243.267z M373.639,328.487
	c-11.147-3.197-21.767-1.564-29.904,4.597c-8.137,6.161-12.589,15.94-12.536,27.536c0.049,10.79,4.064,22,11.306,31.564
	s16.941,16.469,27.314,19.442c3.728,1.069,7.396,1.598,10.934,1.598c7.038,0,13.555-2.095,18.97-6.194
	c16.113-12.201,16.666-38.714,1.23-59.101C393.712,338.367,384.012,331.462,373.639,328.487z M390.668,395.072
	c-4.281,3.242-10.219,4.001-16.714,2.137c-7.273-2.085-14.194-7.085-19.489-14.078c-5.295-6.993-8.23-15.012-8.265-22.577
	c-0.031-6.76,2.31-12.268,6.591-15.509c2.745-2.079,6.171-3.137,9.989-3.137c2.136,0,4.395,0.331,6.725,1
	c7.273,2.085,14.194,7.085,19.489,14.078C399.26,370.544,400.026,387.986,390.668,395.072z M282.292,141.42
	c-11.538,0-20.926,9.388-20.926,20.926c0,4.143,3.357,7.5,7.5,7.5s7.5-3.357,7.5-7.5c0-3.268,2.658-5.926,5.926-5.926
	s5.926,2.658,5.926,5.926c0,4.143,3.357,7.5,7.5,7.5s7.5-3.357,7.5-7.5C303.219,150.808,293.831,141.42,282.292,141.42z
	 M229.708,141.42c-11.539,0-20.926,9.388-20.926,20.926c0,4.143,3.358,7.5,7.5,7.5c4.142,0,7.5-3.357,7.5-7.5
	c0-3.268,2.658-5.926,5.926-5.926c3.268,0,5.926,2.658,5.926,5.926c0,4.143,3.358,7.5,7.5,7.5s7.5-3.357,7.5-7.5
	C250.634,150.808,241.247,141.42,229.708,141.42z M492.135,145.488c-21.387-29.226-52.064-44.013-86.415-41.631
	c-4.133,0.287-7.25,3.869-6.964,8.001c0.286,4.132,3.875,7.229,8.001,6.964c29.432-2.054,54.772,10.242,73.272,35.523
	c14.399,19.677,19.78,43.012,15.562,67.48c-6.385,37.03-34.044,74.601-75.885,103.079c-1.906,1.298-3.11,3.399-3.264,5.701
	c-0.153,2.301,0.76,4.544,2.477,6.083c13.04,11.69,23.341,41.514,17.274,65.617c-4.817,19.142-18.408,31.549-40.396,36.878
	c-37.802,9.168-89.384-44.386-97.673-73.392V222.736c17.55-12.956,28.959-33.775,28.959-57.214c0-2.586-0.148-5.138-0.418-7.654
	c13.091-12.163,26.923-21.715,41.161-28.418c3.748-1.765,5.355-6.233,3.591-9.98c-1.763-3.748-6.233-5.356-9.979-3.591
	c-13.335,6.277-26.287,14.784-38.634,25.346c-7.147-19.589-22.677-35.178-42.229-42.404c4.746-9.938,12.104-21.042,19.717-29.485
	c2.773-3.076,2.528-7.819-0.548-10.593c-3.077-2.772-7.819-2.528-10.593,0.548c-9.328,10.345-18.071,23.836-23.385,35.835
	c-3.196-0.441-6.453-0.688-9.768-0.688c-3.316,0-6.573,0.246-9.769,0.688c-5.314-11.999-14.057-25.489-23.385-35.835
	c-2.773-3.076-7.517-3.322-10.592-0.548c-3.076,2.774-3.321,7.517-0.548,10.593c7.614,8.444,14.973,19.548,19.718,29.485
	c-19.548,7.226-35.078,22.81-42.227,42.397c-31.382-26.882-66.023-40.054-98.614-37.246c-28.16,2.422-52.615,16.777-70.718,41.518
	C3.008,168.525-3.299,195.802,1.628,224.374c6.696,38.841,33.928,77.812,75.167,107.952c-13.289,17.085-22.245,46.977-15.534,73.642
	c4.32,17.167,16.747,39.395,51.408,47.795c0.594,0.143,1.188,0.213,1.772,0.213c3.382,0,6.451-2.304,7.283-5.735
	c0.976-4.025-1.497-8.08-5.522-9.056c-21.986-5.328-35.578-17.735-40.395-36.878c-6.067-24.103,4.234-53.927,17.273-65.617
	c1.717-1.539,2.63-3.782,2.477-6.083c-0.154-2.302-1.357-4.403-3.264-5.701c-41.841-28.478-69.5-66.049-75.884-103.08
	c-4.219-24.468,1.162-47.803,15.561-67.48c15.469-21.139,36.182-33.391,59.898-35.431c30.062-2.584,63.959,11.579,93.462,38.954
	c-0.27,2.515-0.418,5.066-0.418,7.652c0,23.439,11.409,44.259,28.96,57.215v143.033c-5.56,19.504-31.053,51.111-59.625,66.199
	c-3.663,1.934-5.064,6.471-3.13,10.134c1.345,2.546,3.947,4,6.639,4c1.181,0,2.379-0.28,3.496-0.87
	c15.072-7.958,30.48-20.609,43.388-35.623c3.358-3.905,6.443-7.868,9.232-11.809v6.315c0,23.227,18.897,42.126,42.126,42.126
	c23.227,0,42.126-18.898,42.126-42.126v-6.329c7.535,10.637,17.202,21.309,27.847,30.389c25.543,21.787,46.604,27.012,60.929,27.011
	c4.993,0,9.17-0.635,12.43-1.425c34.662-8.4,47.088-30.628,51.408-47.795c6.712-26.666-2.244-56.558-15.533-73.642
	c41.239-30.14,68.47-69.111,75.166-107.952C515.299,195.803,508.992,168.525,492.135,145.488z M283.125,404.115
	c0,14.957-12.168,27.125-27.125,27.125s-27.125-12.168-27.125-27.125V231.216c8.364,3.466,17.522,5.39,27.125,5.39
	c9.602,0,18.761-1.924,27.125-5.39V404.115z M256,221.607c-30.925,0-56.086-25.159-56.086-56.085s25.159-56.085,56.086-56.085
	c30.925,0,56.085,25.159,56.085,56.085C312.085,196.446,286.925,221.607,256,221.607z M151.265,207.32
	c0-28.092-22.854-50.947-50.948-50.947c-28.092,0-50.947,22.854-50.947,50.947s22.855,50.947,50.947,50.947
	C128.411,258.267,151.265,235.412,151.265,207.32z M100.319,243.267c-19.821,0-35.947-16.125-35.947-35.947
	s16.126-35.947,35.947-35.947c19.821,0,35.948,16.125,35.948,35.947S120.14,243.267,100.319,243.267z M112.277,407.031
	c5.465,4.138,12.027,6.105,18.917,6.105c13.428,0,28.1-7.478,38.302-20.951c15.435-20.387,14.883-46.899-1.23-59.101
	c-16.115-12.201-41.784-5.541-57.219,14.846C95.61,368.318,96.162,394.83,112.277,407.031z M123.005,356.986
	c7.207-9.519,17.525-15.05,26.272-15.05c3.713,0,7.143,0.997,9.932,3.108c9.358,7.086,8.592,24.527-1.674,38.087
	c-10.266,13.56-26.845,19.027-36.205,11.941C111.973,387.986,112.739,370.544,123.005,356.986z"/>
<g>
</g>
<g>
</g>
<g>
</g>
<g>
</g>
<g>
</g>
<g>
</g>
<g>
</g>
<g>
</g>
<g>
</g>
<g>
</g>
<g>
</g>
<g>
</g>
<g>
</g>
<g>
</g>
<g>
</g>
</svg>
