<?xml version="1.0" encoding="iso-8859-1"?>
<!-- Generator: Adobe Illustrator 19.0.0, SVG Export Plug-In . SVG Version: 6.00 Build 0)  -->
<svg version="1.1" id="Layer_1" xmlns="http://www.w3.org/2000/svg" xmlns:xlink="http://www.w3.org/1999/xlink" x="0px" y="0px"
	 viewBox="0 0 512 512" style="enable-background:new 0 0 512 512;" xml:space="preserve">
<g>
	<path style="fill:#80D0B5;" d="M242.037,376.219h28.048c-5.232,25.019-11.078,35.616-14.018,38.87
		C253.116,411.836,247.28,401.238,242.037,376.219z"/>
	<path style="fill:#80D0B5;" d="M234.212,314.187h43.71c-0.894,14.007-2.225,27.366-3.969,39.674h-35.773
		C236.437,341.553,235.095,328.194,234.212,314.187z"/>
	<path style="fill:#80D0B5;" d="M279.129,260.326c0.067,3.868,0.112,7.758,0.112,11.66c0,6.674-0.101,13.303-0.291,19.843h-45.778
		c-0.179-6.54-0.279-13.169-0.279-19.843s0.101-13.292,0.279-19.843h45.778c0.067,2.403,0.123,4.818,0.168,7.244
		c0,0.123,0,0.246,0,0.369c0,0.011,0,0.011,0,0.011c0,0.089,0.011,0.168,0.011,0.257
		C279.129,260.125,279.129,260.226,279.129,260.326z"/>
	<path style="fill:#80D0B5;" d="M277.922,229.785h-43.71c0.883-14.007,2.225-27.366,3.969-39.674h35.773
		C275.697,202.419,277.028,215.778,277.922,229.785z"/>
	<path style="fill:#80D0B5;" d="M270.086,167.753h-28.048c5.243-25.008,11.078-35.616,14.03-38.87
		C259.007,132.136,264.854,142.745,270.086,167.753z"/>
</g>
<g>
	<path style="fill:#FDC656;" d="M407.543,270.946c13.963,0,27.143,5.925,36.432,16.277
		c-1.364,57.628-46.851,104.524-103.909,108.135l-35.013-124.412H407.543z M390.204,342.325c4.36-4.36,4.36-11.436,0-15.807
		l-19.798-19.798c-4.36-4.36-11.436-4.36-15.807,0c-4.371,4.371-4.371,11.447,0,15.818l19.798,19.787
		c2.18,2.191,5.042,3.275,7.904,3.275C385.163,345.6,388.024,344.516,390.204,342.325z"/>
	<path style="fill:#FDC656;" d="M206.946,270.946l-35.002,124.4c-57.024-3.79-102.411-50.809-103.585-108.504
		c9.267-10.117,22.302-15.897,36.097-15.897H206.946z M157.412,322.538c4.36-4.371,4.36-11.447,0-15.818
		c-4.371-4.36-11.447-4.36-15.818,0l-19.787,19.798c-4.371,4.371-4.371,11.447,0,15.807c2.18,2.191,5.042,3.275,7.904,3.275
		s5.724-1.084,7.904-3.275L157.412,322.538z"/>
</g>
<g>
	<path style="fill:#F85A55;" d="M458.508,205.426c0,0.76,0.224,3.164,0.224,3.164c0,22.056-17.942,39.999-39.999,39.999h-11.19
		H301.778c2.683-49.087,23.062-94.832,58.053-129.822c2.672-2.672,5.411-5.254,8.205-7.758
		C418.286,113.143,458.508,154.673,458.508,205.426z M400.411,192.067c4.36-4.371,4.36-11.447,0-15.807
		c-4.371-4.371-11.447-4.371-15.818,0l-23.454,23.454c-4.36,4.36-4.36,11.447,0,15.807c2.18,2.18,5.042,3.275,7.904,3.275
		c2.862,0,5.724-1.096,7.904-3.275L400.411,192.067z"/>
	<path style="fill:#F85A55;" d="M210.222,248.588H104.457h-11.19c-22.056,0-39.999-17.942-39.999-39.999
		c0,0,0.224-2.403,0.224-3.164c0-50.753,40.222-92.283,90.472-94.418c2.795,2.504,5.545,5.086,8.217,7.758
		C187.171,153.756,207.539,199.501,210.222,248.588z M150.861,215.521c4.371-4.36,4.371-11.447,0-15.807l-23.454-23.454
		c-4.371-4.371-11.447-4.371-15.807,0c-4.371,4.36-4.371,11.436,0,15.807l23.454,23.454c2.18,2.18,5.042,3.275,7.904,3.275
		C145.819,218.796,148.681,217.701,150.861,215.521z"/>
</g>
<g>
	<path style="fill:#FFE5B1;" d="M453.377,341.944l-12.196,69.176c-4.125,23.454-24.404,40.468-48.215,40.468
		c-21.341,0-40.334-14.03-46.695-34.297C393.58,412.585,433.702,383.05,453.377,341.944z"/>
	<path style="fill:#FFE5B1;" d="M165.74,417.269c-6.35,20.279-25.354,34.32-46.706,34.32c-23.811,0-44.09-17.014-48.215-40.468
		l-12.398-70.339C77.851,382.401,118.129,412.406,165.74,417.269z"/>
	<path style="fill:#FFE5B1;" d="M489.642,60.713v26.192c0,12.61-3.533,24.929-10.206,35.616l-7.099,11.38
		c-2.705,4.315-5.008,8.831-6.92,13.504c-15.561-27.098-41.664-47.399-72.675-55.269C421.584,73.469,454.775,62.625,489.642,60.713z
		"/>
	<path style="fill:#FFE5B1;" d="M119.258,92.138c-31.011,7.87-57.114,28.171-72.675,55.269c-1.912-4.673-4.214-9.189-6.909-13.504
		l-7.11-11.38c-6.674-10.687-10.206-23.006-10.206-35.616V60.713C57.237,62.625,90.416,73.469,119.258,92.138z"/>
</g>
<path d="M512,49.232v37.673c0,16.802-4.706,33.213-13.594,47.455l-7.11,11.38c-6.674,10.687-10.206,23.006-10.206,35.616v27.232
	c0,23.029-12.554,43.173-31.167,53.961c4.472,3.32,8.597,7.155,12.252,11.514c13.583,16.187,19.273,37.405,15.606,58.22
	l-14.577,82.725c-6.014,34.152-35.549,58.936-70.238,58.936c-31.804,0-60.031-21.385-68.65-51.994l-25.332-90.025
	c-1.04,11.47-6.674,47.433-7.714,52.139c-3.365,15.203-7.378,27.322-11.928,36.008c-6.316,12.062-14.153,18.177-23.275,18.177
	c-23.208,0-32.24-40.781-35.214-54.185c-1.04-4.706-6.696-40.882-7.747-52.474l-25.421,90.36
	c-8.619,30.608-36.846,51.994-68.65,51.994c-34.677,0-64.224-24.784-70.238-58.936l-14.577-82.725
	c-3.667-20.815,2.023-42.033,15.606-58.22c3.656-4.36,7.792-8.194,12.263-11.514C43.464,251.763,30.91,231.619,30.91,208.59v-27.232
	c0-12.61-3.521-24.929-10.206-35.616l-7.099-11.38C4.706,120.119,0,103.708,0,86.906V49.232c0-6.171,5.008-11.179,11.179-11.179
	c59.271,0,114.954,23.051,156.808,64.894c21.643,21.654,38.243,46.997,49.244,74.62c0.123-0.995,0.369-1.945,0.738-2.839
	c0.883-5.154,1.845-10.117,2.884-14.823c3.376-15.204,7.389-27.322,11.939-36.008c3.432-6.551,7.311-11.336,11.604-14.343
	c-3.622-27.69-27.344-49.143-56.007-49.143c-6.171,0-11.179-5.008-11.179-11.179s5.008-11.179,11.179-11.179
	c28.719,0,53.883,15.427,67.678,38.434c13.784-23.006,38.959-38.434,67.667-38.434c6.171,0,11.179,5.008,11.179,11.179
	s-5.008,11.179-11.179,11.179c-28.674,0-52.419,21.486-56.007,49.199c14.734,10.519,21.14,39.417,23.543,50.295
	c1.04,4.706,2.001,9.67,2.895,14.823c0.335,0.827,0.57,1.699,0.704,2.616c11-27.534,27.568-52.81,49.143-74.397
	c41.854-41.843,97.548-64.894,156.808-64.894C506.992,38.053,512,43.062,512,49.232z M489.642,86.906V60.713
	c-34.867,1.912-68.058,12.755-96.9,31.424c31.011,7.87,57.114,28.171,72.675,55.269c1.912-4.673,4.215-9.189,6.92-13.504
	l7.099-11.38C486.109,111.835,489.642,99.516,489.642,86.906z M458.732,208.59c0,0-0.224-2.403-0.224-3.164
	c0-50.753-40.222-92.283-90.472-94.418c-2.795,2.504-5.534,5.086-8.205,7.758c-34.99,34.99-55.37,80.735-58.053,129.822h105.765
	h11.19C440.79,248.588,458.732,230.646,458.732,208.59z M441.181,411.12l12.196-69.176c-19.675,41.105-59.797,70.64-107.106,75.347
	c6.361,20.268,25.354,34.297,46.695,34.297C416.777,451.588,437.056,434.574,441.181,411.12z M443.976,287.223
	c-9.29-10.352-22.47-16.277-36.432-16.277H305.054l35.013,124.412C397.124,391.747,442.612,344.851,443.976,287.223z
	 M279.241,271.986c0-3.901-0.045-7.792-0.112-11.66c0-0.101,0-0.201,0-0.302c0-0.089-0.011-0.168-0.011-0.257c0,0,0,0,0-0.011
	c0-0.123,0-0.246,0-0.369c-0.045-2.426-0.101-4.841-0.168-7.244h-45.778c-0.179,6.551-0.279,13.169-0.279,19.843
	s0.101,13.303,0.279,19.843h45.778C279.141,285.289,279.241,278.66,279.241,271.986z M234.212,229.785h43.71
	c-0.894-14.007-2.225-27.366-3.969-39.674h-35.773C236.437,202.419,235.095,215.778,234.212,229.785z M277.922,314.187h-43.71
	c0.883,14.007,2.225,27.366,3.969,39.674h35.773C275.697,341.553,277.028,328.194,277.922,314.187z M242.037,167.753h28.048
	c-5.232-25.008-11.078-35.616-14.018-38.87C253.116,132.136,247.28,142.745,242.037,167.753z M270.086,376.219h-28.048
	c5.243,25.019,11.078,35.616,14.03,38.87C259.007,411.836,264.854,401.238,270.086,376.219z M104.457,248.588h105.765
	c-2.683-49.087-23.051-94.832-58.042-129.822c-2.672-2.672-5.422-5.254-8.217-7.758c-50.25,2.135-90.472,43.665-90.472,94.418
	c0,0.76-0.224,3.164-0.224,3.164c0,22.056,17.942,39.999,39.999,39.999H104.457z M171.945,395.347l35.002-124.4H104.457
	c-13.795,0-26.83,5.78-36.097,15.897C69.534,344.538,114.921,391.557,171.945,395.347z M119.034,451.588
	c21.352,0,40.356-14.041,46.706-34.32c-47.612-4.863-87.89-34.867-107.319-76.487l12.398,70.339
	C74.944,434.574,95.223,451.588,119.034,451.588z M46.583,147.407c15.561-27.098,41.664-47.399,72.675-55.269
	c-28.842-18.669-62.021-29.513-96.9-31.424v26.192c0,12.61,3.533,24.929,10.206,35.616l7.11,11.38
	C42.369,138.218,44.671,142.734,46.583,147.407z"/>
<path d="M400.411,176.26c4.36,4.36,4.36,11.436,0,15.807l-23.465,23.454c-2.18,2.18-5.042,3.275-7.904,3.275
	c-2.862,0-5.724-1.096-7.904-3.275c-4.36-4.36-4.36-11.447,0-15.807l23.454-23.454C388.964,171.889,396.04,171.889,400.411,176.26z"
	/>
<path d="M390.204,326.517c4.36,4.371,4.36,11.447,0,15.807c-2.18,2.191-5.042,3.275-7.904,3.275c-2.862,0-5.724-1.084-7.904-3.275
	l-19.798-19.787c-4.371-4.371-4.371-11.447,0-15.818c4.371-4.36,11.447-4.36,15.807,0L390.204,326.517z"/>
<path d="M157.412,306.719c4.36,4.371,4.36,11.447,0,15.818l-19.798,19.787c-2.18,2.191-5.042,3.275-7.904,3.275
	c-2.862,0-5.724-1.084-7.904-3.275c-4.371-4.36-4.371-11.436,0-15.807l19.787-19.798
	C145.965,302.359,153.041,302.359,157.412,306.719z"/>
<path d="M150.861,199.714c4.371,4.36,4.371,11.447,0,15.807c-2.18,2.18-5.042,3.275-7.904,3.275c-2.862,0-5.724-1.096-7.904-3.275
	L111.6,192.067c-4.371-4.371-4.371-11.447,0-15.807c4.36-4.371,11.436-4.371,15.807,0L150.861,199.714z"/>
<g>
</g>
<g>
</g>
<g>
</g>
<g>
</g>
<g>
</g>
<g>
</g>
<g>
</g>
<g>
</g>
<g>
</g>
<g>
</g>
<g>
</g>
<g>
</g>
<g>
</g>
<g>
</g>
<g>
</g>
</svg>
