<?xml version="1.0" encoding="iso-8859-1"?>
<!-- Generator: Adobe Illustrator 19.0.0, SVG Export Plug-In . SVG Version: 6.00 Build 0)  -->
<svg version="1.1" id="Layer_1" xmlns="http://www.w3.org/2000/svg" xmlns:xlink="http://www.w3.org/1999/xlink" x="0px" y="0px"
	 viewBox="0 0 512 512" style="enable-background:new 0 0 512 512;" xml:space="preserve">
<g>
	<path style="fill:#DD352E;" d="M377.118,145.892c12.112,0,22.022,9.91,22.022,22.022c0,12.112-9.91,22.021-22.022,22.021
		s-22.022-9.91-22.022-22.021C355.097,155.802,365.006,145.892,377.118,145.892z"/>
	<path style="fill:#DD352E;" d="M355.097,233.979c12.112,0,22.022,9.91,22.022,22.021c0,12.112-9.91,22.022-22.022,22.022
		c-12.112,0-22.021-9.91-22.021-22.022C333.075,243.888,342.985,233.979,355.097,233.979z"/>
	<path style="fill:#DD352E;" d="M349.591,349.591c12.112,0,22.022,9.91,22.022,22.022c0,12.112-9.91,22.022-22.022,22.022
		c-12.112,0-22.022-9.91-22.022-22.022C327.57,359.501,337.48,349.591,349.591,349.591z"/>
	<path style="fill:#DD352E;" d="M162.409,355.097c12.112,0,22.022,9.91,22.022,22.022s-9.91,22.022-22.022,22.022
		c-12.112,0-22.021-9.91-22.021-22.022S150.297,355.097,162.409,355.097z"/>
	<path style="fill:#DD352E;" d="M156.903,239.484c12.112,0,22.021,9.91,22.021,22.021c0,12.112-9.91,22.022-22.021,22.022
		s-22.021-9.91-22.021-22.022C134.882,249.394,144.791,239.484,156.903,239.484z"/>
	<path style="fill:#DD352E;" d="M118.366,167.914c12.112,0,22.022,9.91,22.022,22.021s-9.91,22.022-22.022,22.022
		s-22.022-9.91-22.022-22.022S106.254,167.914,118.366,167.914z"/>
</g>
<g>
	<rect x="217.462" y="349.591" style="fill:#E7ECED;" width="77.075" height="55.054"/>
	<rect x="217.462" y="239.484" style="fill:#E7ECED;" width="77.075" height="55.054"/>
	<rect x="217.462" y="129.376" style="fill:#E7ECED;" width="77.075" height="55.054"/>
</g>
<g>
	<path style="fill:#AFB6BB;" d="M294.538,438.338v26.866c0,21.251-17.287,38.538-38.538,38.538s-38.538-17.287-38.538-38.538
		v-26.866v-33.693h77.075V438.338z"/>
	<rect x="217.462" y="294.538" style="fill:#AFB6BB;" width="77.075" height="55.054"/>
	<rect x="217.462" y="184.43" style="fill:#AFB6BB;" width="77.075" height="55.054"/>
</g>
<path style="fill:#546A79;" d="M294.538,101.849v27.527h-77.075v-27.527c0-21.251,17.287-38.538,38.538-38.538
	c10.57,0,20.26,4.294,27.197,11.341C290.243,81.59,294.538,91.279,294.538,101.849z"/>
<g>
	<path style="fill:#FFD248;" d="M327.57,371.613c0,12.112,9.91,22.022,22.022,22.022c12.112,0,22.022-9.91,22.022-22.022
		c0-12.112-9.91-22.022-22.022-22.022C337.48,349.591,327.57,359.501,327.57,371.613z M294.538,404.645v-55.054v-55.054v-55.054
		V184.43v-55.054c18.388-13.874,41.29-22.021,66.065-22.021c60.779,0,110.108,49.328,110.108,110.108
		c0,49.659-32.812,91.609-77.956,105.373c10.901,13.213,17.397,30.28,17.397,48.778c0,42.612-34.464,77.075-77.075,77.075
		c-14.094,0-27.197-3.744-38.538-10.35V404.645z M399.14,167.914c0-12.112-9.91-22.022-22.022-22.022s-22.022,9.91-22.022,22.022
		c0,12.112,9.91,22.021,22.022,22.021S399.14,180.026,399.14,167.914z M377.118,256c0-12.112-9.91-22.021-22.022-22.021
		c-12.112,0-22.021,9.91-22.021,22.021c0,12.112,9.91,22.022,22.021,22.022C367.209,278.022,377.118,268.112,377.118,256z"/>
	<path style="fill:#FFD248;" d="M184.43,377.118c0-12.112-9.91-22.022-22.022-22.022c-12.112,0-22.021,9.91-22.021,22.022
		s9.91,22.022,22.021,22.022C174.52,399.14,184.43,389.23,184.43,377.118z M217.462,349.591v55.054v33.693
		c-11.341,6.606-24.444,10.35-38.538,10.35c-42.612,0-77.075-34.464-77.075-77.075c0-18.498,6.496-35.565,17.397-48.778
		C74.102,309.072,41.29,267.121,41.29,217.462c0-60.779,49.328-110.108,110.108-110.108c24.774,0,47.677,8.148,66.065,22.021v55.054
		v55.054v55.054V349.591z M178.925,261.505c0-12.112-9.91-22.021-22.021-22.021s-22.021,9.91-22.021,22.021
		c0,12.112,9.91,22.022,22.021,22.022S178.925,273.617,178.925,261.505z M140.387,189.935c0-12.112-9.91-22.021-22.022-22.021
		s-22.022,9.91-22.022,22.021s9.91,22.022,22.022,22.022S140.387,202.047,140.387,189.935z"/>
</g>
<g>
	<path style="fill:#FBB546;" d="M349.591,393.634c-12.112,0-22.022-9.91-22.022-22.022c0-4.338,1.312-8.369,3.501-11.789
		c-12.666-6.263-24.865-13.741-36.534-22.314v12.082v55.054v33.693c11.341,6.606,24.444,10.35,38.538,10.35
		c39.138,0,71.323-29.1,76.323-66.857c-12.985-1.07-25.728-3.283-38.147-6.664C369.532,385.594,360.487,393.634,349.591,393.634z"/>
	<path style="fill:#FBB546;" d="M151.398,107.355c-60.779,0-110.108,49.328-110.108,110.108c0,49.659,32.812,91.609,77.956,105.373
		c-10.901,13.212-17.397,30.28-17.397,48.778c0,42.612,34.464,77.075,77.075,77.075c14.094,0,27.197-3.744,38.538-10.35v-33.693
		v-55.054v-55.054v-41.735c-25.857-41.432-44.585-90.716-53.889-144.702C159.567,107.66,155.52,107.355,151.398,107.355z
		 M118.366,211.957c-12.112,0-22.022-9.91-22.022-22.022s9.91-22.021,22.022-22.021s22.022,9.91,22.022,22.021
		S130.477,211.957,118.366,211.957z M162.409,399.14c-12.112,0-22.021-9.91-22.021-22.022s9.91-22.022,22.021-22.022
		c12.112,0,22.022,9.91,22.022,22.022S174.52,399.14,162.409,399.14z M156.903,283.527c-12.112,0-22.021-9.91-22.021-22.022
		c0-12.112,9.91-22.021,22.021-22.021s22.021,9.91,22.021,22.021C178.925,273.617,169.015,283.527,156.903,283.527z"/>
</g>
<g>
	<rect x="217.462" y="349.591" style="fill:#C8CDCF;" width="38.538" height="55.054"/>
	<rect x="217.462" y="239.484" style="fill:#C8CDCF;" width="38.538" height="55.054"/>
	<rect x="217.462" y="129.376" style="fill:#C8CDCF;" width="38.538" height="55.054"/>
</g>
<g>
	<path style="fill:#8F969A;" d="M217.462,404.645v33.693v26.866c0,21.251,17.287,38.538,38.538,38.538v-99.097H217.462z"/>
	<rect x="217.462" y="294.538" style="fill:#8F969A;" width="38.538" height="55.054"/>
	<rect x="217.462" y="184.43" style="fill:#8F969A;" width="38.538" height="55.054"/>
</g>
<path style="fill:#465966;" d="M256,63.312c-21.251,0-38.538,17.287-38.538,38.538v27.527H256V63.312z"/>
<path d="M360.602,99.097c-20.576,0-40.282,5.175-57.806,15.044v-12.291c0-12.548-4.887-24.278-13.759-33.037
	C280.278,59.94,268.548,55.054,256,55.054c-25.804,0-46.796,20.992-46.796,46.796v12.291c-17.526-9.869-37.231-15.044-57.806-15.044
	c-14.248,0-28.186,2.51-41.428,7.463l5.785,15.469c11.385-4.257,23.377-6.416,35.643-6.416c20.948,0,40.845,6.203,57.806,17.979
	V433.41c-9.393,4.66-19.557,7.02-30.28,7.02c-37.945,0-68.817-30.871-68.817-68.817c0-15.942,5.508-31.4,15.509-43.522l7.875-9.545
	l-11.837-3.608c-20.439-6.231-38.805-19.119-51.714-36.29c-13.341-17.743-20.392-38.901-20.392-61.185
	c0-34.311,17.134-66.109,45.833-85.059L86.28,118.62c-33.342,22.017-53.248,58.967-53.248,98.842
	c0,25.894,8.198,50.483,23.706,71.11c12.721,16.918,30.009,30.26,49.465,38.341c-8.19,13.303-12.612,28.814-12.612,44.7
	c0,47.052,38.28,85.333,85.333,85.333c10.405,0,20.673-1.899,30.28-5.553v13.811C209.204,491.008,230.196,512,256,512
	s46.796-20.992,46.796-46.796v-13.811c9.607,3.652,19.874,5.553,30.28,5.553c32.807,0,63.083-19.138,77.133-48.756l-14.923-7.078
	c-11.329,23.883-35.749,39.317-62.21,39.317c-10.722,0-20.886-2.36-30.28-7.02V133.592c16.961-11.776,36.86-17.979,57.806-17.979
	c56.16,0,101.849,45.689,101.849,101.849c0,22.284-7.051,43.442-20.392,61.183c-12.91,17.171-31.275,30.059-51.715,36.29
	l-11.837,3.608l7.875,9.545c10.002,12.124,15.51,27.581,15.51,43.523h16.516c0-15.886-4.422-31.397-12.613-44.7
	c19.456-8.081,36.745-21.421,49.466-38.341c15.509-20.626,23.706-45.216,23.706-71.11
	C478.968,152.196,425.868,99.097,360.602,99.097z M286.28,341.333H225.72v-38.538h60.559V341.333z M286.28,286.28H225.72v-38.538
	h60.559V286.28z M286.28,231.226H225.72v-38.538h60.559V231.226z M286.28,176.172H225.72v-38.538h60.559V176.172z M225.72,357.849
	h60.559v38.538H225.72V357.849z M256,71.57c8.108,0,15.677,3.152,21.311,8.877l0.091,0.091c5.725,5.634,8.877,13.203,8.877,21.311
	v19.269H225.72v-19.269C225.72,85.154,239.303,71.57,256,71.57z M256,495.484c-16.697,0-30.28-13.584-30.28-30.28v-52.301h60.559
	v52.301C286.28,481.9,272.696,495.484,256,495.484z"/>
<path d="M215.363,44.509l15.251-6.34C223.375,20.757,206.622,0,167.914,0v16.516C191.677,16.516,207.642,25.935,215.363,44.509z"/>
<path d="M344.086,16.516V0c-38.68,0-55.435,20.729-62.678,38.118l15.245,6.351C304.38,25.92,320.34,16.516,344.086,16.516z"/>
<rect x="239.484" y="445.935" style="fill:#FFFFFF;" width="33.032" height="16.516"/>
<path d="M118.366,159.656c-16.697,0-30.28,13.584-30.28,30.28s13.583,30.28,30.28,30.28s30.28-13.584,30.28-30.28
	S135.062,159.656,118.366,159.656z M118.366,203.699c-7.59,0-13.763-6.174-13.763-13.763s6.174-13.763,13.763-13.763
	c7.59,0,13.763,6.174,13.763,13.763S125.955,203.699,118.366,203.699z"/>
<path d="M377.118,198.194c16.696,0,30.28-13.584,30.28-30.28s-13.584-30.28-30.28-30.28s-30.28,13.584-30.28,30.28
	S360.423,198.194,377.118,198.194z M377.118,154.151c7.59,0,13.763,6.174,13.763,13.763c0,7.59-6.174,13.763-13.763,13.763
	s-13.763-6.174-13.763-13.763C363.355,160.324,369.529,154.151,377.118,154.151z"/>
<path d="M324.817,256c0,16.696,13.584,30.28,30.28,30.28c16.696,0,30.28-13.584,30.28-30.28c0-16.696-13.584-30.28-30.28-30.28
	C338.401,225.72,324.817,239.304,324.817,256z M355.097,242.237c7.59,0,13.763,6.174,13.763,13.763
	c0,7.59-6.174,13.763-13.763,13.763S341.333,263.59,341.333,256C341.333,248.41,347.507,242.237,355.097,242.237z"/>
<path d="M349.591,401.892c16.696,0,30.28-13.584,30.28-30.28c0-16.696-13.584-30.28-30.28-30.28c-16.696,0-30.28,13.584-30.28,30.28
	C319.312,388.309,332.896,401.892,349.591,401.892z M349.591,357.849c7.59,0,13.763,6.174,13.763,13.763
	s-6.174,13.763-13.763,13.763s-13.763-6.174-13.763-13.763S342.002,357.849,349.591,357.849z"/>
<path d="M132.129,377.118c0,16.696,13.583,30.28,30.28,30.28s30.28-13.584,30.28-30.28s-13.583-30.28-30.28-30.28
	S132.129,360.423,132.129,377.118z M176.172,377.118c0,7.59-6.174,13.763-13.763,13.763c-7.59,0-13.763-6.174-13.763-13.763
	s6.174-13.763,13.763-13.763C169.998,363.355,176.172,369.529,176.172,377.118z"/>
<path d="M156.903,231.226c-16.697,0-30.28,13.584-30.28,30.28c0,16.696,13.583,30.28,30.28,30.28s30.28-13.584,30.28-30.28
	C187.183,244.81,173.6,231.226,156.903,231.226z M156.903,275.269c-7.59,0-13.763-6.174-13.763-13.763
	c0-7.59,6.174-13.763,13.763-13.763s13.763,6.174,13.763,13.763C170.667,269.095,164.493,275.269,156.903,275.269z"/>
<g>
</g>
<g>
</g>
<g>
</g>
<g>
</g>
<g>
</g>
<g>
</g>
<g>
</g>
<g>
</g>
<g>
</g>
<g>
</g>
<g>
</g>
<g>
</g>
<g>
</g>
<g>
</g>
<g>
</g>
</svg>
